<svg xmlns="http://www.w3.org/2000/svg" version="1.0" preserveAspectRatio="xMidYMid meet" viewBox="68 139.21 367 215.79">

<g transform="translate(0.000000,500.000000) scale(0.100000,-0.100000)" fill="#000000" stroke="none">
<path d="M2773 3599 c-43 -23 -47 -55 -34 -268 7 -108 15 -209 18 -225 6 -28 5 -29 -23 -21 -16 5 -63 9 -105 11 -62 2 -84 7 -115 27 -63 40 -73 40 -159 -1 -302 -146 -605 -448 -605 -603 0 -53 15 -88 58 -132 54 -55 122 -77 240 -77 352 1 844 273 919 508 14 44 15 60 5 100 -7 26 -16 108 -22 182 -11 144 -27 291 -37 327 -8 34 14 37 150 23 67 -7 300 -16 517 -19 217 -4 402 -10 412 -15 21 -10 35 -47 43 -111 4 -27 8 -62 11 -76 l5 -27 -108 5 c-59 3 -119 1 -132 -4 -18 -7 -34 -5 -63 9 -70 34 -91 33 -150 -5 -249 -159 -507 -478 -525 -649 -7 -74 0 -101 43 -148 50 -55 109 -75 214 -74 302 4 798 340 887 599 10 31 13 62 9 98 -4 28 -10 138 -15 242 -12 291 -15 295 -248 295 -81 0 -200 -5 -263 -10 -214 -20 -380 -15 -525 15 -147 30 -365 43 -402 24z m1151 -539 c44 -16 53 -51 26 -102 -78 -150 -332 -368 -505 -433 -112 -43 -153 -29 -136 47 16 70 66 143 171 249 205 208 339 279 444 239z m-1254 -118 c80 -39 41 -115 -125 -245 -195 -152 -489 -269 -543 -215 -53 53 68 204 275 341 144 96 235 137 303 137 32 0 69 -7 90 -18z"/>
<path d="M1068 3161 c-90 -36 -208 -139 -208 -181 0 -11 11 -26 23 -35 22 -14 28 -13 78 9 79 36 277 63 267 37 -1 -5 -34 -44 -71 -85 l-68 -76 -63 0 c-35 0 -67 -5 -74 -12 -21 -21 -14 -65 14 -85 l26 -19 -57 -70 c-74 -89 -92 -126 -78 -157 24 -51 155 -83 225 -54 32 13 43 28 81 104 24 49 50 98 57 109 l13 21 96 -24 c107 -26 179 -29 203 -10 42 33 65 115 38 132 -6 4 -59 11 -118 16 -59 5 -113 12 -120 14 -9 3 7 32 48 85 68 89 73 91 170 65 114 -31 213 -12 272 51 38 41 59 85 48 100 -6 6 -55 14 -113 18 -56 3 -183 18 -282 32 -254 36 -348 39 -407 15z"/>
<path d="M680 1590 l0 -140 25 0 c24 0 25 3 25 60 l0 60 50 0 c43 0 50 3 50 20 0 17 -7 20 -50 20 l-50 0 0 40 0 40 55 0 c48 0 55 2 55 20 0 18 -7 20 -80 20 l-80 0 0 -140z"/>
<path d="M1180 1590 l0 -140 80 0 c73 0 80 2 80 20 0 18 -7 20 -55 20 l-55 0 0 40 0 40 50 0 c43 0 50 3 50 20 0 17 -7 20 -50 20 l-50 0 0 40 0 40 55 0 c48 0 55 2 55 20 0 18 -7 20 -80 20 l-80 0 0 -140z"/>
<path d="M1710 1708 c-25 -27 -26 -79 -2 -100 9 -9 35 -24 56 -34 49 -24 65 -46 47 -68 -18 -22 -57 -20 -80 3 -17 17 -22 18 -38 5 -17 -13 -17 -15 10 -39 21 -18 39 -25 71 -25 54 0 86 30 86 82 0 39 -17 58 -70 80 -48 20 -66 43 -50 63 15 18 51 20 68 3 8 -8 15 -8 28 3 15 12 14 15 -6 31 -32 26 -94 24 -120 -4z"/>
<path d="M2180 1710 c0 -16 7 -20 35 -20 l35 0 0 -120 0 -120 25 0 25 0 0 120 0 120 35 0 c28 0 35 4 35 20 0 19 -7 20 -95 20 -88 0 -95 -1 -95 -20z"/>
<path d="M2700 1590 l0 -140 25 0 25 0 0 140 0 140 -25 0 -25 0 0 -140z"/>
<path d="M3080 1723 c1 -5 22 -66 49 -138 43 -117 50 -130 73 -133 17 -2 28 3 33 15 4 10 27 73 51 141 l44 123 -27 -3 c-24 -3 -30 -12 -61 -106 -19 -57 -38 -100 -42 -95 -4 4 -22 52 -40 106 -28 87 -34 97 -56 97 -13 0 -24 -3 -24 -7z"/>
<path d="M3695 1653 c-15 -43 -38 -106 -51 -140 l-23 -63 25 0 c19 0 28 7 35 30 11 29 13 30 69 30 57 0 59 -1 65 -30 5 -23 12 -30 31 -30 13 0 24 3 24 7 0 4 -21 67 -47 140 -45 124 -50 133 -74 133 -24 0 -29 -7 -54 -77z m79 -47 c9 -27 16 -51 16 -53 0 -2 -18 -3 -40 -3 -22 0 -40 3 -40 7 0 21 35 112 41 106 3 -5 14 -30 23 -57z"/>
<path d="M4200 1590 l0 -140 75 0 c68 0 75 2 75 20 0 17 -7 20 -50 20 l-50 0 0 120 0 120 -25 0 -25 0 0 -140z"/>
</g>
</svg>